<svg width="190" height="80" viewBox="0 0 190 80" fill="none" xmlns="http://www.w3.org/2000/svg">
<path d="M90.4134 20.0349C90.2851 22.0108 90.6321 29.7454 94.4248 30.773C98.2174 31.8007 101.941 25.5711 102.828 23.8007C103.715 22.0303 105.718 16.139 98.8912 14.2892C92.0644 12.4395 90.5417 18.0589 90.4134 20.0349Z" fill="#F2C94C"/>
<path d="M81.3184 45.6728C81.6489 45.6839 82.4303 79.2139 93.6947 79.2139C104.959 79.2139 106.768 46.5254 107.098 46.5365C107.429 46.5475 117.736 60.2284 120.198 60.4682C121.444 60.5896 125.532 59.4622 129.267 58.3184C135.873 64.401 140.188 63.0232 143.845 59.9065C148.102 56.2784 145.902 49.4271 147.195 48.3252C148.488 47.2234 155.487 48.115 158.524 45.5273C161.56 42.9396 156.915 31.9385 156.915 31.9385C156.915 31.9385 176.761 13.7989 176.982 13.5905C176.895 13.6967 178.267 15.6148 178.83 15.7554C179.396 15.8966 189.505 7.28074 189.559 6.61197C189.612 5.9432 185.345 4.59327 185.051 4.22049C184.757 3.8477 183.351 0.0595332 182.689 0.000321299C182.027 -0.0588906 172.471 8.08517 172.676 8.53414C172.879 8.97936 174.393 10.7583 174.519 10.7023C174.214 10.9162 152.608 26.8836 152.608 26.8836C152.608 26.8836 143.003 20.7332 139.392 23.8103C135.782 26.8874 136.082 32.2411 134.789 33.343C133.496 34.4449 127.125 32.3951 123.229 35.7154C119.528 38.8694 117.425 44.0363 124.608 53.2111L122.743 53.6425C122.743 53.6425 115.46 43.8547 113.224 41.4762C110.987 39.0976 105.776 36.6193 102.163 35.8401C98.549 35.0608 89.2836 35.0795 86.6285 35.3197C83.9734 35.5598 78.9606 37.0374 76.2064 40.236C73.4522 43.4347 70.8853 50.9179 69.1997 51.8487C68.9212 52.0026 68.4401 51.9968 67.8312 51.8801C71.1399 45.669 69.1415 42.0962 65.8249 39.2848C61.5582 35.6681 55.151 38.9436 53.8551 37.8451C52.5593 36.7467 52.3113 29.6956 49.268 27.116C46.2248 24.5364 36.116 30.8931 36.116 30.8931C36.116 30.8931 15.0151 14.2306 14.7738 14.0458C14.8927 14.1151 16.5646 12.4514 16.6126 11.8734C16.6608 11.2924 6.52825 2.70345 5.85962 2.75858C5.191 2.81371 4.54641 7.24247 4.22587 7.59267C3.90534 7.94286 0.393295 9.94101 0.441532 10.6038C0.48977 11.2666 10.0675 19.3852 10.4776 19.1109C10.8843 18.839 12.3959 17.0575 12.3204 16.9422C12.5806 17.2086 31.8216 35.9594 31.8216 35.9594C31.8216 35.9594 27.2995 46.4299 30.9183 49.4973C34.5371 52.5648 39.7724 51.4055 41.0682 52.5039C42.3641 53.6024 41.3679 60.2207 45.2728 63.5307C49.1776 66.8406 55.5839 67.3413 64.1729 57.2087C67.1975 59.035 70.2113 60.4931 71.249 59.8157C73.5796 58.2943 80.9879 45.6618 81.3184 45.6728Z" fill="#F2C94C"/>
</svg>
